HIERARCHY
ROOT Hips
{
 OFFSET 0.000000 0.000000 0.000000
 CHANNELS 6 Xposition Yposition Zposition Yrotation Xrotation Zrotation
 JOINT Chest
 {
  OFFSET 0.000000 10.101222 -0.056779
  CHANNELS 3 Yrotation Xrotation Zrotation
  JOINT Chest2
  {
   OFFSET 0.000000 8.297218 0.103137
   CHANNELS 3 Yrotation Xrotation Zrotation
   JOINT Chest3
   {
    OFFSET 0.000000 7.493411 0.000000
    CHANNELS 3 Yrotation Xrotation Zrotation
    JOINT Chest4
    {
     OFFSET 0.000000 7.493411 0.000000
     CHANNELS 3 Yrotation Xrotation Zrotation
     JOINT Neck
     {
      OFFSET 0.000000 10.747351 0.000000
      CHANNELS 3 Yrotation Xrotation Zrotation
      JOINT Head
      {
       OFFSET 0.000000 7.717153 0.188667
       CHANNELS 3 Yrotation Xrotation Zrotation
       End Site
       {
        OFFSET 0.000000 14.853047 0.068983
       }
      }
     }
     JOINT RightCollar
     {
      OFFSET -2.766550 6.061559 0.000000
      CHANNELS 3 Yrotation Xrotation Zrotation
      JOINT RightShoulder
      {
       OFFSET -14.830725 0.000000 0.000000
       CHANNELS 3 Yrotation Xrotation Zrotation
       JOINT RightElbow
       {
        OFFSET -28.959634 0.000000 0.000000
        CHANNELS 3 Yrotation Xrotation Zrotation
        JOINT RightWrist
        {
         OFFSET -23.742631 0.000000 0.003006
         CHANNELS 3 Yrotation Xrotation Zrotation
         End Site
         {
          OFFSET -17.766445 0.000000 0.000000
         }
        }
       }
      }
     }
     JOINT LeftCollar
     {
      OFFSET 2.766550 6.061559 0.000000
      CHANNELS 3 Yrotation Xrotation Zrotation
      JOINT LeftShoulder
      {
       OFFSET 14.830725 0.000000 0.000000
       CHANNELS 3 Yrotation Xrotation Zrotation
       JOINT LeftElbow
       {
        OFFSET 28.959634 0.000000 0.000000
        CHANNELS 3 Yrotation Xrotation Zrotation
        JOINT LeftWrist
        {
         OFFSET 23.742631 0.000000 0.003006
         CHANNELS 3 Yrotation Xrotation Zrotation
         End Site
         {
          OFFSET 17.766445 0.000000 0.000000
         }
        }
       }
      }
     }
    }
   }
  }
 }
 JOINT RightHip
 {
  OFFSET -8.655184 0.278217 0.028389
  CHANNELS 3 Yrotation Xrotation Zrotation
  JOINT RightKnee
  {
   OFFSET 0.000000 -47.671744 -0.001158
   CHANNELS 3 Yrotation Xrotation Zrotation
   JOINT RightAnkle
   {
    OFFSET 0.000000 -42.492694 -0.036854
    CHANNELS 3 Yrotation Xrotation Zrotation
    JOINT RightToe
    {
     OFFSET 0.000000 -5.741774 14.901460
     CHANNELS 3 Yrotation Xrotation Zrotation
     End Site
     {
      OFFSET 0.000000 -1.778666 8.212983
     }
    }
   }
  }
 }
 JOINT LeftHip
 {
  OFFSET 8.655184 0.278217 0.028389
  CHANNELS 3 Yrotation Xrotation Zrotation
  JOINT LeftKnee
  {
   OFFSET 0.000000 -47.671744 -0.001158
   CHANNELS 3 Yrotation Xrotation Zrotation
   JOINT LeftAnkle
   {
    OFFSET 0.000000 -42.492694 -0.036854
    CHANNELS 3 Yrotation Xrotation Zrotation
    JOINT LeftToe
    {
     OFFSET 0.000000 -5.741774 14.901460
     CHANNELS 3 Yrotation Xrotation Zrotation
     End Site
     {
      OFFSET 0.000000 -1.778666 8.212983
     }
    }
   }
  }
 }
}
MOTION
Frames: 5
Frame Time: 0.004167
727.650846 97.181573 895.500459 103.144163 -10.853663 -3.964182 -3.655888 10.988557 -0.849621 -1.577785 -2.748774 -0.182468 -1.577518 2.539304 -0.328061 -1.181581 1.905340 -0.239449 5.096343 18.407666 -2.579797 10.199524 -1.604975 -6.394854 4.695475 -7.020224 -5.789655 27.446616 -21.403607 67.011851 104.237943 9.821696 11.448998 -12.121680 8.496190 3.346115 0.133568 -1.296301 -6.497721 -12.288962 0.095887 -77.422556 -6.129901 -42.016723 -92.897861 -29.326689 -37.641534 15.784642 4.763640 14.738568 2.885366 4.190941 -0.967724 1.506380 -6.879588 -0.965342 -8.443243 0.205416 0.120583 8.922703 3.831737 17.962765 1.225851 -2.598700 -6.463221 -4.235002 18.650974 -2.222262 5.045380 0.010220 -0.252192 2.255860
727.639286 97.182008 895.507029 103.148157 -10.863378 -3.964675 -3.649628 10.991833 -0.844961 -1.575242 -2.747373 -0.180706 -1.574979 2.540712 -0.326065 -1.179685 1.906390 -0.237959 5.107794 18.421186 -2.583269 10.220506 -1.578433 -6.403581 4.692717 -7.007783 -5.788152 27.425960 -21.400148 67.037711 104.253569 9.835972 11.464623 -12.142079 8.499145 3.356677 0.128303 -1.288291 -6.502196 -12.280636 0.084100 -77.425271 -6.110845 -42.001193 -92.899670 -29.319826 -37.642047 15.786095 4.770209 14.735934 2.889765 4.184735 -0.958384 1.507183 -6.883422 -0.962060 -8.443418 0.204784 0.116411 8.921227 3.845354 17.962277 1.237256 -2.623719 -6.460678 -4.240619 18.656852 -2.220498 5.047279 0.010347 -0.246646 2.256649
727.627673 97.182646 895.514299 103.152360 -10.873030 -3.965979 -3.642594 10.995326 -0.840074 -1.572367 -2.745879 -0.178882 -1.572109 2.542213 -0.323976 -1.177540 1.907509 -0.236401 5.120416 18.437240 -2.586937 10.243482 -1.547058 -6.412797 4.688251 -6.995704 -5.786282 27.403221 -21.396862 67.063858 104.269752 9.842241 11.482952 -12.163725 8.500022 3.367871 0.121905 -1.281040 -6.505836 -12.274761 0.074446 -77.428134 -6.093901 -41.990356 -92.899598 -29.310868 -37.640603 15.784276 4.776909 14.732603 2.895529 4.178071 -0.948326 1.507653 -6.887015 -0.957779 -8.443109 0.204062 0.111190 8.919118 3.858875 17.961745 1.250630 -2.652067 -6.458718 -4.247120 18.665360 -2.218517 5.048496 0.010495 -0.240656 2.258312
727.615986 97.183457 895.522119 103.156166 -10.882703 -3.968052 -3.634627 10.999222 -0.834985 -1.569087 -2.744210 -0.177016 -1.568834 2.543890 -0.321808 -1.175092 1.908759 -0.234784 5.132608 18.454389 -2.590401 10.265516 -1.513727 -6.421384 4.682045 -6.984146 -5.783936 27.378037 -21.394190 67.090328 104.285601 9.838971 11.504070 -12.185987 8.498367 3.380602 0.114105 -1.274564 -6.508825 -12.270840 0.066449 -77.431270 -6.079246 -41.983665 -92.897264 -29.300904 -37.637294 15.779284 4.785019 14.728579 2.902704 4.170259 -0.937650 1.507984 -6.890276 -0.952479 -8.442294 0.203228 0.104837 8.916350 3.872320 17.961482 1.266003 -2.683586 -6.457793 -4.254909 18.676945 -2.216350 5.049252 0.010674 -0.233927 2.260982
727.604176 97.184391 895.530300 103.159135 -10.892463 -3.970760 -3.625707 11.003647 -0.829732 -1.565391 -2.742310 -0.175123 -1.565143 2.545800 -0.319574 -1.172332 1.910184 -0.233119 5.143181 18.471291 -2.593370 10.284452 -1.481074 -6.428562 4.674471 -6.973131 -5.781125 27.350305 -21.392469 67.117194 104.300435 9.826637 11.527507 -12.208136 8.494144 3.395668 0.104950 -1.268768 -6.511468 -12.267887 0.059295 -77.434711 -6.066681 -41.979724 -92.892651 -29.291146 -37.632526 15.771830 4.795586 14.723877 2.911147 4.160753 -0.926430 1.508427 -6.893212 -0.946312 -8.441038 0.202285 0.097439 8.912974 3.885840 17.961630 1.283144 -2.717842 -6.458023 -4.264111 18.691565 -2.214090 5.049821 0.010889 -0.226325 2.264584
